<svg width="177" height="116" viewBox="0 0 177 116" fill="none" xmlns="http://www.w3.org/2000/svg">
<g opacity="0.2">
<path d="M89 50.6667C94.891 50.6667 99.6666 45.891 99.6666 40C99.6666 34.109 94.891 29.3333 89 29.3333C83.1089 29.3333 78.3333 34.109 78.3333 40C78.3333 45.891 83.1089 50.6667 89 50.6667Z" fill="#333333"/>
<path d="M79 6.66667L72.9 13.3333H62.3334C58.6667 13.3333 55.6667 16.3333 55.6667 20V60C55.6667 63.6667 58.6667 66.6667 62.3334 66.6667H115.667C119.333 66.6667 122.333 63.6667 122.333 60V20C122.333 16.3333 119.333 13.3333 115.667 13.3333H105.1L99 6.66667H79ZM89 56.6667C79.8 56.6667 72.3334 49.2 72.3334 40C72.3334 30.8 79.8 23.3333 89 23.3333C98.2 23.3333 105.667 30.8 105.667 40C105.667 49.2 98.2 56.6667 89 56.6667Z" fill="#333333"/>
<path d="M0.576 105.42L0.936 106.788C2.61 106.32 4.77 105.672 6.822 105.042L6.642 103.764C4.428 104.376 2.142 105.042 0.576 105.42ZM0.828 99.516V100.848H6.642V99.516H0.828ZM3.186 95.898V110.82C3.186 111.09 3.096 111.162 2.844 111.162C2.628 111.18 1.872 111.18 1.044 111.162C1.224 111.54 1.404 112.098 1.458 112.422C2.7 112.44 3.42 112.422 3.906 112.188C4.392 111.972 4.554 111.594 4.554 110.82V95.898H3.186ZM7.596 99.12V112.404H8.946V100.416H14.994V112.278H16.38V99.12H7.596ZM8.406 104.574V105.852H15.534V104.574H8.406ZM8.406 110.118V111.414H15.534V110.118H8.406ZM11.412 95.916C11.232 97.032 10.818 98.634 10.458 99.642L11.682 99.894C12.096 98.922 12.582 97.428 12.96 96.114L11.412 95.916ZM18.276 105.438L18.744 106.698C20.04 105.924 21.642 104.934 23.136 103.998L22.758 102.792C21.12 103.818 19.41 104.826 18.276 105.438ZM18.456 99.516V100.776H23.226V99.516H18.456ZM20.436 95.898V110.748C20.436 110.982 20.346 111.036 20.13 111.036C19.932 111.054 19.302 111.054 18.582 111.036C18.762 111.396 18.924 111.972 18.96 112.296C20.022 112.314 20.688 112.26 21.102 112.044C21.534 111.828 21.696 111.468 21.696 110.748V95.898H20.436ZM24.09 96.546V97.536H34.314V96.546H24.09ZM23.406 104.052V105.042H28.86V104.052H23.406ZM25.8 96.906V102.486L27.06 102.45V96.906H25.8ZM24.198 104.448V110.298L25.26 110.208V104.448H24.198ZM23.118 109.812L23.262 110.856C24.612 110.712 26.286 110.55 27.996 110.37V109.488C26.16 109.614 24.396 109.74 23.118 109.812ZM31.11 96.942V103.656H32.388V96.942H31.11ZM26.556 98.4V99.192H31.632V98.4H26.556ZM24.702 105.978V106.788H27.636V105.978H24.702ZM24.702 107.796V108.624H27.69V107.796H24.702ZM29.166 104.052V105.042H34.836V104.052H29.166ZM29.904 104.448V110.298L30.966 110.154V104.448H29.904ZM26.556 100.11V100.902H31.578V100.11H26.556ZM27.186 104.448V112.422H28.248V104.448H27.186ZM30.498 105.96V106.77H33.396V105.96H30.498ZM30.498 107.76V108.588H33.432V107.76H30.498ZM32.946 104.448V112.422H34.008V104.448H32.946ZM23.604 101.838V102.864H34.764V101.838H23.604ZM29.004 109.614V110.604H34.872V109.614H29.004ZM36.84 96.672V107.886H38.118V96.672H36.84ZM37.524 96.672V97.878H40.836V105.744H37.524V106.986H42.096V96.672H37.524ZM37.506 101.028V102.234H41.484V101.028H37.506ZM42.87 96.636V97.842H50.934V96.636H42.87ZM50.502 96.636V96.816C50.376 99.282 50.232 100.2 49.962 100.47C49.836 100.596 49.674 100.632 49.404 100.632C49.116 100.632 48.378 100.614 47.604 100.542C47.784 100.866 47.91 101.334 47.946 101.676C48.774 101.712 49.566 101.712 49.98 101.676C50.448 101.64 50.772 101.55 51.042 101.262C51.438 100.848 51.6 99.768 51.78 97.158C51.798 96.978 51.798 96.636 51.798 96.636H50.502ZM46.002 97.014C45.768 99.138 45.048 100.542 42.294 101.298C42.582 101.532 42.924 102 43.05 102.306C46.146 101.37 47.028 99.642 47.352 97.014H46.002ZM44.688 103.692H49.944V106.428H44.688V103.692ZM43.41 102.558V107.562H51.276V102.558H43.41ZM41.304 108.768C41.52 109.938 41.664 111.468 41.664 112.386L42.996 112.188C42.978 111.288 42.78 109.794 42.546 108.624L41.304 108.768ZM45.156 108.714C45.624 109.866 46.074 111.414 46.236 112.332L47.568 112.044C47.388 111.108 46.902 109.596 46.416 108.48L45.156 108.714ZM48.828 108.606C49.674 109.812 50.682 111.468 51.096 112.476L52.392 111.9C51.942 110.892 50.898 109.29 50.034 108.12L48.828 108.606ZM38.316 108.246C37.704 109.56 36.768 111.054 35.94 111.972L37.236 112.53C38.064 111.504 38.964 109.956 39.594 108.606L38.316 108.246ZM56.88 100.344V101.712H65.988V100.344H56.88ZM64.602 95.898V101.172H65.988V95.898H64.602ZM56.466 96.078V102.198C56.466 105.456 56.214 108.858 53.91 111.486C54.216 111.72 54.702 112.188 54.918 112.512C57.51 109.596 57.816 105.852 57.816 102.198V96.078H56.466ZM56.826 104.61V105.96H65.232V112.44H66.636V104.61H56.826ZM78.702 98.868H78.576L77.46 100.056V108.948H78.702V100.002H86.946V98.868H78.702ZM78.054 101.82V102.9H86.46V101.82H78.054ZM78.09 104.772V105.852H86.46V104.772H78.09ZM78.054 107.796V108.948H87.36V107.796H78.054ZM81.852 99.336V108.372H83.058V99.336H81.852ZM78.882 96.006C78.072 98.364 76.758 100.722 75.318 102.27C75.552 102.522 75.93 103.08 76.074 103.332C77.64 101.604 79.098 98.958 80.034 96.33L78.882 96.006ZM81.366 96.474C81.888 97.392 82.464 98.616 82.68 99.354L83.868 98.976C83.634 98.22 83.04 97.032 82.482 96.15L81.366 96.474ZM71.862 96.51C72.654 97.392 73.662 98.652 74.148 99.408L75.192 98.67C74.688 97.932 73.698 96.78 72.87 95.916L71.862 96.51ZM71.214 100.038V101.172H75.156V100.038H71.214ZM74.418 108.3L73.518 108.714C74.868 111.684 77.226 112.188 81.438 112.188C83.418 112.188 85.686 112.134 87.378 112.044C87.45 111.666 87.63 111.036 87.828 110.748C85.992 110.892 83.346 110.982 81.456 110.982C77.874 110.982 75.534 110.658 74.418 108.3ZM74.67 104.538V104.772C74.166 108.066 72.78 110.352 70.872 111.558C71.124 111.756 71.574 112.206 71.754 112.494C73.77 111.144 75.264 108.606 75.894 104.754L75.21 104.502L74.976 104.538H74.67ZM71.466 105.888C71.592 105.744 72.06 105.636 72.528 105.636H75.102L75.12 104.538H72.114L71.466 104.862V105.888ZM71.466 105.888C71.466 105.546 72.474 105.042 72.474 105.042C73.536 103.89 75.21 101.604 76.092 100.38L75.192 99.948L74.778 100.128V100.182C74.166 101.136 72.402 103.566 71.826 104.124C71.52 104.484 71.232 104.592 70.962 104.664C71.106 104.952 71.376 105.582 71.466 105.888ZM95.79 96.978V98.274H104.628V96.978H95.79ZM101.046 102.342V110.694C101.046 111 100.938 111.072 100.578 111.09C100.254 111.108 99.048 111.108 97.77 111.072C97.968 111.468 98.148 112.026 98.202 112.404C99.966 112.404 100.992 112.386 101.604 112.188C102.216 111.972 102.414 111.558 102.414 110.712V102.342H101.046ZM94.998 101.946V103.224H105.15V101.946H94.998ZM91.398 103.332V112.494H92.748V102.234L92.586 102.162L91.398 103.332ZM93.486 99.732C92.244 101.802 90.264 103.89 88.392 105.222C88.68 105.474 89.148 106.068 89.346 106.338C91.236 104.826 93.36 102.504 94.764 100.218L93.486 99.732ZM92.748 95.88C91.83 97.176 90.084 98.796 88.59 99.804C88.824 100.074 89.184 100.596 89.382 100.884C90.984 99.732 92.838 97.986 94.044 96.402L92.748 95.88ZM107.838 99.462V100.488H112.842V99.462H107.838ZM116.118 99.462V100.488H121.212V99.462H116.118ZM120.636 96.744V110.604C120.636 110.946 120.528 111.036 120.168 111.054C119.808 111.072 118.566 111.09 117.324 111.018C117.522 111.414 117.756 112.044 117.828 112.422C119.466 112.422 120.528 112.404 121.158 112.17C121.77 111.954 121.986 111.522 121.986 110.604V96.744H120.636ZM107.946 96.744V97.878H112.356V102.216H107.946V103.35H113.634V96.744H107.946ZM121.338 96.744H115.326V103.368H121.338V102.234H116.622V97.878H121.338V96.744ZM107.19 96.744V112.44H108.522V96.744H107.19ZM133.944 95.898C133.764 96.51 133.386 97.428 133.062 98.04L134.358 98.274C134.7 97.716 135.078 96.906 135.474 96.132L133.944 95.898ZM131.91 101.856H138.21V103.818H131.91V101.856ZM131.91 98.868H138.21V100.812H131.91V98.868ZM130.632 97.752V104.952H139.524V97.752H130.632ZM129.912 107.544V108.768H140.406V107.544H129.912ZM135.942 105.384V112.44H137.184V105.384H135.942ZM134.484 98.166V100.938C134.484 102.27 134.034 105.06 131.136 106.968C131.424 107.166 131.892 107.526 132.09 107.778C135.15 105.6 135.708 102.126 135.708 100.938V98.166H134.484ZM125.718 100.884V102.054H129.336V100.884H125.718ZM128.184 95.898V101.55H129.336V95.898H128.184ZM125.736 104.646V105.816H128.076V112.422H129.354V104.646H125.736ZM125.016 96.258V103.152C125.016 105.798 124.854 109.434 123.756 112.008C124.134 112.116 124.692 112.296 124.98 112.44C126.06 109.722 126.258 106.032 126.258 103.152V96.258H125.016ZM149.934 96.042V102.9C149.934 106.122 149.7 109.218 147.558 111.612C147.828 111.81 148.224 112.188 148.404 112.476C150.816 109.848 151.104 106.464 151.104 102.9V96.042H149.934ZM141.672 98.292V99.426H147.432V98.292H141.672ZM141.51 103.026V104.178H147.576V103.026H141.51ZM142.338 99.912C142.662 100.884 142.896 102.144 142.914 102.954L143.994 102.738C143.958 101.928 143.688 100.668 143.328 99.714L142.338 99.912ZM145.812 99.66C145.632 100.704 145.236 102.234 144.912 103.17L145.848 103.422C146.208 102.54 146.604 101.118 146.946 99.93L145.812 99.66ZM151.86 98.256V99.408H157.764V98.256H151.86ZM151.644 103.08V104.232H157.998V103.08H151.644ZM152.49 99.948C152.832 100.902 153.084 102.18 153.12 102.99L154.182 102.738C154.128 101.928 153.84 100.686 153.462 99.732L152.49 99.948ZM156.198 99.606C155.982 100.722 155.532 102.36 155.154 103.332L156.09 103.584C156.486 102.63 156.954 101.118 157.35 99.876L156.198 99.606ZM154.236 103.476V112.44H155.496V103.476H154.236ZM151.86 106.806V107.958H157.764V106.806H151.86ZM143.922 103.44V106.572C143.922 108.084 143.724 110.262 141.78 111.558C142.05 111.774 142.428 112.206 142.608 112.458C144.804 110.892 145.164 108.426 145.164 106.572V103.44H143.922ZM143.202 96.348C143.67 97.194 144.174 98.346 144.354 99.066L145.542 98.634C145.344 97.95 144.822 96.834 144.336 96.006L143.202 96.348ZM141.762 106.338V107.472H147.396V106.338H141.762ZM153.498 96.168C153.948 97.068 154.398 98.256 154.596 98.976L155.766 98.634C155.568 97.914 155.082 96.762 154.596 95.898L153.498 96.168ZM147.882 101.01C148.314 102.414 148.62 104.232 148.62 105.402L149.628 105.204C149.61 104.034 149.304 102.234 148.818 100.812L147.882 101.01ZM164.394 101.37V102.54H175.356V101.37H164.394ZM164.736 97.824V98.922H170.226V97.824H164.736ZM172.548 97.356C173.124 98.346 173.718 99.66 173.916 100.488L175.032 100.002C174.798 99.192 174.168 97.914 173.592 96.96L172.548 97.356ZM168.588 99.048C168.48 99.768 168.21 100.848 167.994 101.532L168.93 101.73C169.164 101.1 169.434 100.11 169.686 99.264L168.588 99.048ZM165.438 99.228C165.672 100.02 165.852 101.046 165.906 101.694L166.968 101.496C166.896 100.866 166.68 99.84 166.428 99.066L165.438 99.228ZM174.006 103.494C172.944 106.968 170.838 109.866 168.498 111.558C168.75 111.738 169.11 112.08 169.29 112.296C171.72 110.496 173.898 107.562 175.086 104.034L174.006 103.494ZM170.73 95.916C170.892 105.042 171.468 112.332 173.988 112.368C174.582 112.386 175.176 111.72 175.518 109.2C175.302 109.092 174.816 108.768 174.582 108.498C174.492 109.974 174.294 110.82 174.006 110.838C172.71 110.784 171.99 103.944 171.936 95.916H170.73ZM166.446 96.294C166.824 96.978 167.22 97.878 167.346 98.454L168.48 98.076C168.318 97.518 167.922 96.654 167.526 96.006L166.446 96.294ZM165.672 106.176V107.166H169.38V106.176H165.672ZM165.15 103.53V111.126H166.284V103.53H165.15ZM165.726 103.53V104.538H168.804V110.352H169.956V103.53H165.726ZM165.654 108.876V109.848H169.362V108.876H165.654ZM159.858 101.334V102.414H163.872V101.334H159.858ZM159.858 103.746V104.826H163.872V103.746H159.858ZM159.246 98.94V100.074H164.304V98.94H159.246ZM160.488 106.176V107.274H162.846V110.298H160.488V111.414H163.872V106.176H160.488ZM159.84 106.176V112.26H160.866V106.176H159.84ZM160.506 96.33C161.01 97.068 161.55 98.076 161.802 98.688L162.792 98.22C162.54 97.626 161.964 96.654 161.478 95.934L160.506 96.33Z" fill="#333333"/>
</g>
</svg>
