<svg width="120" height="40" viewBox="0 0 120 40" fill="none" xmlns="http://www.w3.org/2000/svg">
<path fill-rule="evenodd" clip-rule="evenodd" d="M7 30H28.1756V11H7V30Z" fill="white"/>
<path fill-rule="evenodd" clip-rule="evenodd" d="M22.3781 23.2457L22.362 23.3636C22.9667 23.5994 23.9427 23.9029 25.2708 24.1726C25.6245 24.2404 26.4152 24.3576 27.0544 24.4593V24.5771C20.9826 24.3414 17.6367 22.1161 16.056 20.5489V17.0099C15.2316 18.6781 12.6749 21.8133 7.59668 22.7225V29.3135H27.6094V24.0879C26.8018 24.0378 25.9774 23.97 25.3719 23.869C24.3643 23.7125 23.3645 23.5049 22.3781 23.2457Z" fill="#00A550"/>
<path fill-rule="evenodd" clip-rule="evenodd" d="M15.8868 14.0257H16.0552V16.9252C17.5525 19.4863 21.5881 21.492 23.1864 22.0321C25.3382 22.7233 27.1547 22.9244 27.6094 22.9752V11.6163H7.59668V21.2562C11.1791 20.3293 14.7945 16.4197 15.8868 14.0257Z" fill="#EC1D24"/>
<path fill-rule="evenodd" clip-rule="evenodd" d="M21.6345 22.4035V22.5384C22.5592 22.9259 24.2907 23.5169 26.0911 23.8035C26.5619 23.8868 27.0832 23.9546 27.6053 24.0054V23.651C26.9316 23.5839 26.2427 23.4992 25.6877 23.4322C24.4431 23.2472 22.6258 22.7079 21.6345 22.4035Z" fill="#00A550"/>
<path fill-rule="evenodd" clip-rule="evenodd" d="M25.0718 22.8495V22.9674C25.6765 23.1693 26.6525 23.338 27.6116 23.4728V23.1862C26.7611 23.1059 25.9139 22.9936 25.0718 22.8495Z" fill="#00A550"/>
<path fill-rule="evenodd" clip-rule="evenodd" d="M37.9028 19.5527V28.7334H39.4552V16.2364C39.8433 15.1554 40.1594 13.8817 40.4503 12.464L38.8964 12.2236C38.4701 14.95 37.424 17.5405 35.8398 19.7931L37.3203 20.4427C37.5139 20.1537 37.7084 19.8417 37.9028 19.5535V19.5527ZM42.0517 21.4759H46.9768V20.0096H42.0509V21.4759H42.0517ZM42.0517 18.8801H46.9768V17.4138H42.0509V18.8801H42.0517ZM40.7894 16.4291H46.9768V14.8911H40.7894V16.4291ZM42.0509 13.9773H46.9768V12.5125H42.0509V13.9773ZM43.1915 26.3795H46.9768V27.845H43.1915V28.614H41.6146V22.943C41.6146 22.7981 41.6866 22.7273 41.8573 22.7273H46.9768V24.1928H43.3852C43.2397 24.1928 43.167 24.2637 43.1915 24.3846V26.3795ZM46.9768 13.9781V12.5125H51.732V13.9773H46.9768V13.9781ZM46.9768 16.4298V14.8911H53.0172V16.4291H46.9768V16.4298ZM46.9768 18.8816V17.4145H51.732V18.8816H46.9768ZM46.9768 21.4767V20.0104H51.732V21.4767H46.9768ZM46.9768 24.1928H50.5432C50.7131 24.1928 50.7851 24.2637 50.7851 24.3846V26.3795H46.9768V27.845H50.7851V28.614H52.3137V23.0147C52.3137 22.822 52.2165 22.7273 51.9983 22.7273H46.9768V24.1928Z" fill="white"/>
<mask id="mask0_27_1454" style="mask-type:alpha" maskUnits="userSpaceOnUse" x="56" y="12" width="17" height="18">
<path d="M56.0439 12.2235H72.785V29.1448H56.0439V12.2235Z" fill="white"/>
</mask>
<g mask="url(#mask0_27_1454)">
<path fill-rule="evenodd" clip-rule="evenodd" d="M69.5585 20.3941C69.2676 20.2739 68.9767 20.1298 68.6361 19.9857L68.0053 21.2355C68.6361 21.5237 69.1704 21.7648 69.5585 21.9559V20.3941ZM65.8704 23.9038C66.1805 24.7464 66.5962 25.5457 67.1074 26.2824C65.4088 26.9558 63.8082 27.3873 62.3523 27.5075L62.7649 28.9252C64.7551 28.6371 66.5257 28.1331 68.0298 27.4112C68.4908 27.8639 69.004 28.2594 69.5585 28.5893V26.7385C69.5095 26.7154 69.4858 26.6669 69.436 26.6183C69.4858 26.5952 69.5095 26.5705 69.5585 26.5467V24.7922C69.1459 25.105 68.806 25.3446 68.4906 25.5612C68.0793 25.0521 67.7294 24.4957 67.4481 23.9038H69.5585V22.5092H66.9382C66.6868 21.6223 66.4761 20.7242 66.3067 19.8177H69.5585V18.4H65.0689V17.5332H69.5577V16.261H65.0689V15.348H69.5577V13.9302H68.1998C68.4179 13.6898 68.6123 13.4009 68.7815 13.1613L67.5927 12.2467C67.3018 12.7267 66.7928 13.2799 66.1613 13.9287H62.5949L62.4495 13.7361C61.9642 13.0888 61.5033 12.5841 61.0907 12.2235L60.0237 13.1613C60.2418 13.377 60.5082 13.6174 60.7509 13.9295H56.6257V15.3472H63.5403V16.261H57.6208V17.5347H63.5403V18.4H56.0439V19.8177H64.7781C64.9962 20.804 65.1914 21.7171 65.4341 22.5099H61.3579V21.5969C62.4012 21.4759 63.1774 21.3565 63.639 21.2363L63.4446 19.9379C61.8432 20.2747 59.6103 20.5158 56.8201 20.5628L57.0146 21.885C57.9944 21.8553 58.9733 21.7993 59.9502 21.7171V22.5099H56.2621V23.9046H59.9502V25.2013C58.495 25.3454 57.2327 25.4417 56.1412 25.4903L56.3846 26.8841C57.5753 26.8278 58.7642 26.7394 59.9502 26.6191V27.0999C59.9502 27.3164 59.902 27.4851 59.7802 27.5568C59.4894 27.7725 58.6887 27.7248 57.4272 27.4119V28.8543C59.0041 29.2388 60.0711 29.2388 60.6054 28.8782C61.1145 28.5415 61.3579 28.0854 61.3579 27.4605V26.4272C62.6929 26.2346 63.6138 26.0666 64.2208 25.9225L63.9299 24.5518C63.2992 24.6959 62.4495 24.84 61.3579 25.0079V23.9046H65.8704V23.9038ZM69.5585 21.9559V20.3941C70.213 20.7069 70.7465 20.9465 71.1109 21.1869L70.4074 22.3658C70.2375 22.2926 69.9711 22.1478 69.5577 21.9559H69.5585ZM69.5585 26.7385V28.5893C69.6549 28.6371 69.7521 28.6856 69.8494 28.7573C70.5038 29.1179 71.0864 29.2381 71.5962 29.0701C72.1542 28.8536 72.5668 27.8681 72.785 26.042L71.378 25.585C71.378 26.3063 71.3298 26.7871 71.2081 27.1238C71.1836 27.2917 71.0626 27.3873 70.9402 27.4358C70.7228 27.5075 70.4311 27.3873 70.0193 27.1238C69.8739 27.0028 69.7284 26.8834 69.5585 26.7385ZM69.5585 24.7922C69.8249 24.5996 70.1157 24.3838 70.4082 24.1434L71.2808 25.2969C70.6493 25.8254 70.0683 26.2099 69.5585 26.5467V24.7922ZM69.5585 22.5092H72.2269V23.9038H69.5585V22.5092ZM69.5585 18.3992H72.5186V19.817H69.5585V18.3992ZM69.5585 16.2603H70.9654V17.5339H69.5585V16.261V16.2603ZM69.5585 15.348H71.8871V13.9302H69.5585V15.348Z" fill="white"/>
</g>
<path fill-rule="evenodd" clip-rule="evenodd" d="M85.1198 18.0625V22.1H84.3926C84.3681 22.4375 84.3191 22.7981 84.2701 23.2049H85.1198V24.672H83.9065C83.8345 24.7683 83.81 24.8646 83.7611 24.9602C83.0094 26.4503 81.8206 27.8195 80.171 28.9977L78.9094 27.9405C81.4087 26.4264 82.7185 24.4555 82.8639 22.1H79.8556V20.6823H84.7079V19.4803H79.2493V21.1631C79.2003 23.8791 78.764 26.4026 77.9143 28.6617L76.4102 27.8195C77.2108 25.8023 77.6472 23.5671 77.6962 21.1631V13.5211C77.6717 13.1127 77.8171 12.9201 78.1088 12.9201C80.5353 12.9925 82.8884 12.9679 85.1205 12.8245V14.4103C83.3002 14.5066 81.408 14.5305 79.4912 14.5066C79.322 14.5066 79.2241 14.5782 79.2493 14.747V15.4435H85.1205V16.8382H79.2493V18.0633H85.1205L85.1198 18.0625ZM85.1198 14.4103V12.8245C87.231 12.7036 89.2457 12.5109 91.1862 12.2235L91.6952 13.857C89.5841 14.1221 87.3764 14.3139 85.1198 14.4103ZM85.1198 24.672V23.2049L91.7205 23.1818C91.8659 23.1587 91.9379 23.2049 92.0351 23.2542C92.2295 23.3498 92.326 23.6148 92.326 24.0471C92.326 26.354 92.1078 27.6993 91.6715 28.1324C91.3799 28.4213 90.9918 28.6371 90.4827 28.7811C89.4149 29.0693 87.8372 28.9499 85.7268 28.4213L85.7513 26.643C87.9344 27.3403 89.4876 27.4597 90.3365 27.0036C90.5309 26.8587 90.6756 26.643 90.7001 26.3309C90.7973 25.5134 90.7973 24.9848 90.6756 24.7922C90.6527 24.7198 90.5792 24.672 90.4827 24.672H85.1198ZM90.8456 16.8374C90.9435 16.8374 90.991 16.8852 90.991 16.9584V17.9184C90.991 18.0147 90.9435 18.0625 90.8456 18.0625H85.1198V22.1H92.7631V20.6823H86.2603V19.4803H92.0596C92.3987 19.4803 92.5449 19.3123 92.5449 18.9995V15.9243C92.5449 15.6115 92.3995 15.4435 92.0596 15.4435H85.1198V16.8382H90.8456V16.8374ZM106.454 21.9089V28.8066H99.0293V27.3411H105.217V25.9965H100.268V24.6019H105.217V23.3999L99.9762 23.6403L99.928 22.2225L101.189 22.1501C101.732 21.4448 102.242 20.7152 102.719 19.9634H99.4182V20.7801C99.4182 22.5338 99.2 24.2898 98.8119 25.9711C98.5693 27.2694 98.2301 28.3265 97.865 29.0955L96.3126 28.3982C97.3315 26.1398 97.865 23.3752 97.865 20.203V13.5712C97.865 13.2098 98.0594 12.9933 98.4475 12.9933H106.454V14.532H99.6608C99.5154 14.532 99.4182 14.6283 99.4182 14.7963V15.8288H106.454V17.3675H99.4182V18.4971H106.454V19.9634H104.561L103.227 22.0538L106.454 21.9089ZM106.454 17.3675V15.8296H110.918C111.063 15.8296 111.138 15.734 111.138 15.5899V14.7963C111.138 14.6283 111.064 14.532 110.918 14.532H106.455V12.9941H112.108C112.52 12.9941 112.714 13.2098 112.714 13.5712V16.7673C112.714 17.1756 112.496 17.3675 112.083 17.3675H106.454ZM108.541 20.8279C108.88 21.0691 109.268 21.405 109.682 21.7895L106.454 21.9089V28.8066H113.224V27.3411H106.771V25.9965H111.719V24.6019H106.77V23.3282L111.04 23.1117C111.428 23.4954 111.816 23.9284 112.253 24.4092L113.272 23.3999C112.011 21.9821 110.845 20.8279 109.73 19.9634H113.005V18.4971H106.454V19.9634H109.293L108.541 20.8279Z" fill="white"/>
</svg>
